{"title":"Thor 2011 BRRip XViD DTRG","uid":6632472,"size":2185588873,"categoryP":"video","categoryS":"movies","magnet":"?xt=urn:btih:f63bea015907cb2bbc74287c5e4f680b359b9a11&amp;dn=Thor+2011+BRRip+XViD+DTRG&amp;tr=udp%3A%2F%2Ftracker.openbittorrent.com%3A80&amp;tr=udp%3A%2F%2Fopen.demonii.com%3A1337&amp;tr=udp%3A%2F%2Ftracker.coppersurfer.tk%3A6969&amp;tr=udp%3A%2F%2Fexodus.desync.com%3A6969","seeders":0,"leechers":1,"uploader":"SAFCukO09","files":3,"time":1314423820,"description":"Format : AVI\nFormat/Info : Audio Video Interleave\nFormat profile : OpenDML\nFile size : 2.04 GiB\nDuration : 1h 54mn\nOverall bit rate : 2 537 Kbps\nWriting application : VirtualDubMod 1.5.10.2 (build 2540/release)\nWriting library : VirtualDubMod build 2540/release\n\nVideo\nID : 0\nFormat : MPEG-4 Visual\nFormat profile : Advanced Simple@L5\nFormat settings, BVOP : 2\nFormat settings, QPel : No\nFormat settings, GMC : No warppoints\nFormat settings, Matrix : Default (H.263)\nMuxing mode : Packed bitstream\nCodec ID : XVID\nCodec ID/Hint : XviD\nDuration : 1h 54mn\nBit rate : 2 141 Kbps\nWidth : 720 pixels\nHeight : 304 pixels\nDisplay aspect ratio : 2.35:1\nFrame rate : 23.976 fps\nColor space : YUV\nChroma subsampling : 4:2:0\nBit depth : 8 bits\nScan type : Progressive\nCompression mode : Lossy\nBits/(Pixel*Frame) : 0.408\nStream size : 1.72 GiB (84%)\nWriting library : XviD 64\n\nAudio\nID : 1\nFormat : AC-3\nFormat/Info : Audio Coding 3\nMode extension : CM (complete main)\nCodec ID : 2000\nDuration : 1h 54mn\nBit rate mode : Constant\nBit rate : 384 Kbps\nChannel(s) : 6 channels\nChannel positions : Front: L C R, Side: L R, LFE\nSampling rate : 48.0 KHz\nBit depth : 16 bits\nCompression mode : Lossy\nStream size : 315 MiB (15%)\nAlignment : Split accross interleaves\nInterleave, duration : 42 ms (1.00 video frame)\nInterleave, preload duration : 500 ms\n\n\n\n\n\n\n &lt;a href=&quot;\nhttp://www.imdb.com/title/tt0800369/&quot; rel=&quot;nofollow&quot; target=&quot;_NEW&quot;&gt;\nhttp://www.imdb.com/title/tt0800369/&lt;/a&gt;\n\n\n\n\n\n\n\n\n\nThe powerful but arrogant warrior Thor is cast out of the\nfantastic realm of Asgard and sent to live amongst humans\non Earth,where he soon becomes one of their finest\ndefenders\n\n\n\n\n\n","torrent":{"xt":"urn:btih:f63bea015907cb2bbc74287c5e4f680b359b9a11","amp;dn":"Thor+2011+BRRip+XViD+DTRG","amp;tr":["udp%3A%2F%2Ftracker.openbittorrent.com%3A80","udp%3A%2F%2Fopen.demonii.com%3A1337","udp%3A%2F%2Ftracker.coppersurfer.tk%3A6969","udp%3A%2F%2Fexodus.desync.com%3A6969"],"infoHash":"f63bea015907cb2bbc74287c5e4f680b359b9a11","infoHashBuffer":{"type":"Buffer","data":[246,59,234,1,89,7,203,43,188,116,40,124,94,79,104,11,53,155,154,17]},"announce":[],"urlList":[]}}